<svg width="100" height="88" viewBox="0 0 100 88" fill="none" xmlns="http://www.w3.org/2000/svg">
<rect x="10.2393" width="79.522" height="51.4238" rx="16.7838" fill="url(#paint0_linear_1_133)"/>
<path d="M38.4461 60.0568C38.028 59.9349 37.6546 59.6858 37.4096 59.3257C35.6777 56.7799 35.6758 54.5517 34.4106 51.3834L49.251 51.4236L41.1089 59.3375C40.8031 59.6346 40.4356 59.8608 40.0325 59.9998C39.9225 60.0377 39.8091 60.0654 39.6939 60.0825L39.6185 60.0936C39.3034 60.1403 38.9831 60.1394 38.6682 60.091L38.4461 60.0568Z" fill="url(#paint1_linear_1_133)"/>
<rect x="16.3525" y="16.9447" width="67.2961" height="26.275" rx="10.7245" fill="white"/>
<circle cx="30.3475" cy="30.2967" r="4.82601" fill="url(#paint2_linear_1_133)"/>
<circle cx="29.2758" cy="29.171" r="1.55505" fill="white"/>
<circle cx="31.5811" cy="31.2619" r="0.536224" fill="white"/>
<circle cx="67.6151" cy="30.2967" r="4.82601" fill="url(#paint3_linear_1_133)"/>
<circle cx="66.5433" cy="29.171" r="1.55505" fill="white"/>
<circle cx="68.8487" cy="31.2619" r="0.536224" fill="white"/>
<path d="M44.2891 36.1737C44.2891 35.5932 44.7596 35.1227 45.3401 35.1227H52.622C53.2024 35.1227 53.673 35.5932 53.673 36.1737C53.673 38.4955 51.7908 40.3777 49.469 40.3777H48.4931C46.1713 40.3777 44.2891 38.4955 44.2891 36.1737Z" fill="url(#paint4_linear_1_133)"/>
<path d="M3 11.5019C3 10.0952 4.14036 8.95483 5.54706 8.95483C6.95377 8.95483 8.09412 10.0952 8.09412 11.5019V30.4038C5.28072 30.4038 3 28.1231 3 25.3097V11.5019Z" fill="url(#paint5_linear_1_133)"/>
<path d="M97 11.5019C97 10.0952 95.8596 8.95483 94.4529 8.95483C93.0462 8.95483 91.9059 10.0952 91.9059 11.5019V30.4038C94.7193 30.4038 97 28.1231 97 25.3097V11.5019Z" fill="url(#paint6_linear_1_133)"/>
<path d="M1.24023 81.5979V79.6643C1.46159 79.8596 1.72526 80.0354 2.03125 80.1917C2.34375 80.3479 2.66927 80.4814 3.00781 80.592C3.35286 80.6962 3.69792 80.7776 4.04297 80.8362C4.38802 80.8948 4.70703 80.9241 5 80.9241C6.00911 80.9241 6.76107 80.7385 7.25586 80.3674C7.75716 79.9898 8.00781 79.4495 8.00781 78.7463C8.00781 78.3687 7.92318 78.04 7.75391 77.76C7.59115 77.4801 7.36328 77.2262 7.07031 76.9983C6.77734 76.7639 6.42904 76.5426 6.02539 76.3342C5.62826 76.1194 5.19857 75.8948 4.73633 75.6604C4.24805 75.413 3.79232 75.1624 3.36914 74.9084C2.94596 74.6545 2.57812 74.3746 2.26562 74.0686C1.95312 73.7626 1.70573 73.4176 1.52344 73.0334C1.34766 72.6428 1.25977 72.1871 1.25977 71.6663C1.25977 71.0282 1.39974 70.4749 1.67969 70.0061C1.95964 69.5308 2.32747 69.1402 2.7832 68.8342C3.23893 68.5282 3.75651 68.3004 4.33594 68.1506C4.92188 68.0009 5.51758 67.926 6.12305 67.926C7.50326 67.926 8.50911 68.092 9.14062 68.4241V70.2698C8.3138 69.6969 7.2526 69.4104 5.95703 69.4104C5.59896 69.4104 5.24089 69.4495 4.88281 69.5276C4.52474 69.5992 4.20573 69.7196 3.92578 69.8889C3.64583 70.0582 3.41797 70.2763 3.24219 70.5432C3.06641 70.8101 2.97852 71.1357 2.97852 71.5198C2.97852 71.8778 3.04362 72.1871 3.17383 72.4475C3.31055 72.7079 3.50911 72.9456 3.76953 73.1604C4.02995 73.3752 4.3457 73.5836 4.7168 73.7854C5.0944 73.9872 5.52734 74.2086 6.01562 74.4495C6.51693 74.6969 6.99219 74.9573 7.44141 75.2307C7.89062 75.5042 8.28451 75.8069 8.62305 76.1389C8.96159 76.4709 9.22852 76.8388 9.42383 77.2424C9.62565 77.6461 9.72656 78.1083 9.72656 78.6292C9.72656 79.3193 9.58984 79.9052 9.31641 80.387C9.04948 80.8622 8.6849 81.2496 8.22266 81.5491C7.76693 81.8486 7.23958 82.0634 6.64062 82.1936C6.04167 82.3303 5.41016 82.3987 4.74609 82.3987C4.52474 82.3987 4.2513 82.3792 3.92578 82.3401C3.60026 82.3075 3.26823 82.2555 2.92969 82.1838C2.59115 82.1187 2.26888 82.0374 1.96289 81.9397C1.66341 81.8355 1.42253 81.7216 1.24023 81.5979ZM19.1211 81.7053C18.3529 82.1676 17.4414 82.3987 16.3867 82.3987C14.9609 82.3987 13.8086 81.9364 12.9297 81.012C12.0573 80.081 11.6211 78.8765 11.6211 77.3987C11.6211 75.7515 12.0931 74.4299 13.0371 73.4338C13.9811 72.4312 15.2409 71.9299 16.8164 71.9299C17.6953 71.9299 18.4701 72.0927 19.1406 72.4182V74.0588C18.3984 73.538 17.6042 73.2776 16.7578 73.2776C15.7357 73.2776 14.8958 73.6454 14.2383 74.3811C13.5872 75.1103 13.2617 76.0706 13.2617 77.262C13.2617 78.4338 13.5677 79.3583 14.1797 80.0354C14.7982 80.7125 15.625 81.051 16.6602 81.051C17.5326 81.051 18.3529 80.7613 19.1211 80.1819V81.7053ZM26.7578 73.7854C26.4779 73.5706 26.0742 73.4631 25.5469 73.4631C24.8633 73.4631 24.2904 73.7854 23.8281 74.4299C23.3724 75.0745 23.1445 75.9534 23.1445 77.0667V82.1643H21.543V72.1643H23.1445V74.2249H23.1836C23.4115 73.5217 23.7598 72.9749 24.2285 72.5842C24.6973 72.1871 25.2214 71.9885 25.8008 71.9885C26.2174 71.9885 26.5365 72.0341 26.7578 72.1252V73.7854ZM35.6543 82.1643H34.0527V80.6018H34.0137C33.3171 81.7997 32.2917 82.3987 30.9375 82.3987C29.9414 82.3987 29.1602 82.135 28.5938 81.6077C28.0339 81.0803 27.7539 80.3805 27.7539 79.5081C27.7539 77.6396 28.8542 76.5523 31.0547 76.2463L34.0527 75.8264C34.0527 74.1272 33.3659 73.2776 31.9922 73.2776C30.7878 73.2776 29.7005 73.6877 28.7305 74.5081V72.8674C29.7135 72.2424 30.8464 71.9299 32.1289 71.9299C34.4792 71.9299 35.6543 73.1734 35.6543 75.6604V82.1643ZM34.0527 77.1057L31.6406 77.4377C30.8984 77.5419 30.3385 77.7275 29.9609 77.9944C29.5833 78.2548 29.3945 78.7203 29.3945 79.3909C29.3945 79.8792 29.5671 80.2795 29.9121 80.592C30.2637 80.898 30.7292 81.051 31.3086 81.051C32.1029 81.051 32.7572 80.7743 33.2715 80.2209C33.7923 79.6611 34.0527 78.9547 34.0527 78.1018V77.1057ZM40.3125 80.719H40.2734V86.7639H38.6719V72.1643H40.2734V73.9221H40.3125C41.1003 72.594 42.2526 71.9299 43.7695 71.9299C45.0586 71.9299 46.0645 72.3792 46.7871 73.2776C47.5098 74.1695 47.8711 75.3674 47.8711 76.8713C47.8711 78.5445 47.4642 79.8857 46.6504 80.8948C45.8366 81.8974 44.7233 82.3987 43.3105 82.3987C42.015 82.3987 41.0156 81.8388 40.3125 80.719ZM40.2734 76.6858V78.0823C40.2734 78.9091 40.5404 79.6122 41.0742 80.1917C41.6146 80.7646 42.2982 81.051 43.125 81.051C44.0951 81.051 44.8535 80.6799 45.4004 79.9377C45.9538 79.1956 46.2305 78.1637 46.2305 76.842C46.2305 75.7288 45.9733 74.8564 45.459 74.2249C44.9447 73.5933 44.248 73.2776 43.3691 73.2776C42.4382 73.2776 41.6895 73.6031 41.123 74.2542C40.5566 74.8987 40.2734 75.7092 40.2734 76.6858ZM58.4668 77.5647H51.4062C51.4323 78.678 51.7318 79.5374 52.3047 80.1428C52.8776 80.7483 53.6654 81.051 54.668 81.051C55.7943 81.051 56.8294 80.6799 57.7734 79.9377V81.4417C56.8945 82.0797 55.7324 82.3987 54.2871 82.3987C52.8743 82.3987 51.7643 81.9462 50.957 81.0413C50.1497 80.1298 49.7461 78.8505 49.7461 77.2034C49.7461 75.6474 50.1855 74.3811 51.0645 73.4045C51.9499 72.4215 53.0469 71.9299 54.3555 71.9299C55.6641 71.9299 56.6764 72.3531 57.3926 73.1995C58.1087 74.0458 58.4668 75.2209 58.4668 76.7249V77.5647ZM56.8262 76.2073C56.8197 75.2828 56.5951 74.5634 56.1523 74.0491C55.7161 73.5347 55.1074 73.2776 54.3262 73.2776C53.571 73.2776 52.9297 73.5478 52.4023 74.0881C51.875 74.6285 51.5495 75.3349 51.4258 76.2073H56.8262ZM70.6445 81.5784C69.6094 82.1252 68.3203 82.3987 66.7773 82.3987C64.7852 82.3987 63.1901 81.7574 61.9922 80.4749C60.7943 79.1923 60.1953 77.5094 60.1953 75.426C60.1953 73.1864 60.8691 71.3765 62.2168 69.9963C63.5645 68.6161 65.2734 67.926 67.3438 67.926C68.6719 67.926 69.7721 68.1181 70.6445 68.5022V70.2502C69.6419 69.6903 68.5352 69.4104 67.3242 69.4104C65.7161 69.4104 64.4108 69.9475 63.4082 71.0217C62.4121 72.0959 61.9141 73.5315 61.9141 75.3284C61.9141 77.0341 62.3796 78.3948 63.3105 79.4104C64.248 80.4195 65.4753 80.9241 66.9922 80.9241C68.3984 80.9241 69.6159 80.6116 70.6445 79.9866V81.5784ZM81.582 82.1643H79.9805V76.4026C79.9805 74.3193 79.2057 73.2776 77.6562 73.2776C76.875 73.2776 76.2174 73.5803 75.6836 74.1858C75.1497 74.7847 74.8828 75.5562 74.8828 76.5002V82.1643H73.2812V67.3596H74.8828V73.8245H74.9219C75.6901 72.5614 76.7839 71.9299 78.2031 71.9299C80.4557 71.9299 81.582 73.2874 81.582 76.0022V82.1643ZM91.7676 82.1643H90.166V80.6018H90.127C89.4303 81.7997 88.4049 82.3987 87.0508 82.3987C86.0547 82.3987 85.2734 82.135 84.707 81.6077C84.1471 81.0803 83.8672 80.3805 83.8672 79.5081C83.8672 77.6396 84.9674 76.5523 87.168 76.2463L90.166 75.8264C90.166 74.1272 89.4792 73.2776 88.1055 73.2776C86.901 73.2776 85.8138 73.6877 84.8438 74.5081V72.8674C85.8268 72.2424 86.9596 71.9299 88.2422 71.9299C90.5924 71.9299 91.7676 73.1734 91.7676 75.6604V82.1643ZM90.166 77.1057L87.7539 77.4377C87.0117 77.5419 86.4518 77.7275 86.0742 77.9944C85.6966 78.2548 85.5078 78.7203 85.5078 79.3909C85.5078 79.8792 85.6803 80.2795 86.0254 80.592C86.377 80.898 86.8424 81.051 87.4219 81.051C88.2161 81.051 88.8704 80.7743 89.3848 80.2209C89.9056 79.6611 90.166 78.9547 90.166 78.1018V77.1057ZM99.4238 82.0667C99.0462 82.275 98.5482 82.3792 97.9297 82.3792C96.1784 82.3792 95.3027 81.4026 95.3027 79.4495V73.5315H93.584V72.1643H95.3027V69.7229L96.9043 69.2053V72.1643H99.4238V73.5315H96.9043V79.1663C96.9043 79.8368 97.0182 80.3153 97.2461 80.6018C97.474 80.8883 97.8516 81.0315 98.3789 81.0315C98.7826 81.0315 99.1309 80.9208 99.4238 80.6995V82.0667Z" fill="url(#paint7_linear_1_133)"/>
<defs>
<linearGradient id="paint0_linear_1_133" x1="-2.49054" y1="-35.9967" x2="106.623" y2="-22.5502" gradientUnits="userSpaceOnUse">
<stop offset="0.399038" stop-color="#DF00DB"/>
<stop offset="1" stop-color="#7C3BED"/>
</linearGradient>
<linearGradient id="paint1_linear_1_133" x1="51.6266" y1="66.3105" x2="31.3229" y2="63.5759" gradientUnits="userSpaceOnUse">
<stop offset="0.399038" stop-color="#DF00DB"/>
<stop offset="1" stop-color="#7C3BED"/>
</linearGradient>
<linearGradient id="paint2_linear_1_133" x1="23.9764" y1="18.7143" x2="37.3364" y2="19.779" gradientUnits="userSpaceOnUse">
<stop offset="0.399038" stop-color="#DF00DB"/>
<stop offset="1" stop-color="#7C3BED"/>
</linearGradient>
<linearGradient id="paint3_linear_1_133" x1="61.244" y1="18.7143" x2="74.604" y2="19.779" gradientUnits="userSpaceOnUse">
<stop offset="0.399038" stop-color="#DF00DB"/>
<stop offset="1" stop-color="#7C3BED"/>
</linearGradient>
<linearGradient id="paint4_linear_1_133" x1="42.7869" y1="31.4442" x2="55.5988" y2="33.2674" gradientUnits="userSpaceOnUse">
<stop offset="0.399038" stop-color="#DF00DB"/>
<stop offset="1" stop-color="#7C3BED"/>
</linearGradient>
<linearGradient id="paint5_linear_1_133" x1="2.18454" y1="-6.05943" x2="9.27788" y2="-5.92518" gradientUnits="userSpaceOnUse">
<stop offset="0.399038" stop-color="#DF00DB"/>
<stop offset="1" stop-color="#7C3BED"/>
</linearGradient>
<linearGradient id="paint6_linear_1_133" x1="97.8155" y1="-6.05943" x2="90.7221" y2="-5.92518" gradientUnits="userSpaceOnUse">
<stop offset="0.399038" stop-color="#DF00DB"/>
<stop offset="1" stop-color="#7C3BED"/>
</linearGradient>
<linearGradient id="paint7_linear_1_133" x1="-16.0079" y1="41.2643" x2="112.125" y2="79.0831" gradientUnits="userSpaceOnUse">
<stop stop-color="#DF00DB"/>
<stop offset="1" stop-color="#7C3BED"/>
</linearGradient>
</defs>
</svg>
