<svg width="52" height="30" viewBox="0 0 52 30" fill="none" xmlns="http://www.w3.org/2000/svg">
<path fill-rule="evenodd" clip-rule="evenodd" d="M50.557 2.93478C52.368 5.84848 51.4963 9.70528 48.5785 11.524C46.6351 12.7379 44.2963 12.721 42.4079 11.7557L42.4068 11.7572L42.3766 11.7441L42.3449 11.7306C42.1725 11.6582 41.9922 11.6031 41.6773 11.5555C41.3347 11.5034 40.9477 11.5405 40.5162 11.6654L40.495 11.6717C40.2849 11.7467 40.0771 11.8476 39.8779 11.9755C38.6331 12.7592 38.2427 14.4009 38.9994 15.6429L41.8904 20.2951C43.7014 23.2088 42.8297 27.0656 39.9115 28.8843C37.0107 30.703 33.1706 29.8274 31.3592 26.8969L28.5251 22.3332C27.7371 21.0698 26.077 20.6825 24.8359 21.4744C24.4547 21.7151 24.14 22.0466 23.9204 22.4389C23.7008 22.8312 23.5833 23.2718 23.5786 23.7207V23.7477C23.5786 25.8364 22.5552 27.8741 20.6605 29.0531C17.7596 30.8718 13.9195 29.9962 12.1081 27.0656L1.443 9.9209C-0.368034 7.00683 0.50372 3.1504 3.42151 1.33093C6.32271 -0.487787 10.1628 0.387823 11.9738 3.3184L14.8249 7.89931C15.605 9.14992 17.2398 9.54178 18.4764 8.78167L18.5141 8.75805C19.3025 8.26981 19.7382 7.42757 19.7717 6.56884C19.7382 4.44638 20.7778 2.37529 22.6895 1.17943C25.5903 -0.639284 29.4308 0.236325 31.2418 3.1669L34.1095 7.78119C34.8979 9.04454 36.5576 9.43191 37.7987 8.6403C38.091 8.4558 38.3626 8.13781 38.6135 7.68594C38.5158 7.86969 38.5244 7.85169 38.6399 7.63044C38.8126 7.29932 38.9239 7.03683 38.9737 6.84408C39.022 6.65734 39.0571 6.47659 39.0793 6.30259C39.3064 3.91688 40.1167 2.14204 42.0047 0.946938C44.9055 -0.87178 48.746 0.00382959 50.557 2.9344V2.93478Z" fill="#67EADD"/>
</svg>
