<svg width="40" height="40" viewBox="0 0 40 40" fill="none" xmlns="http://www.w3.org/2000/svg">
<path d="M25.5527 0.591797C26.9319 0.472051 27.7326 0.461048 28.3916 0.608398C29.033 0.751853 29.5809 1.05558 30.4297 1.66895L30.4375 1.6748L37.6221 6.64453C38.2422 7.08826 38.5734 7.31772 38.7744 7.54492C38.9275 7.71807 39 7.88418 39 8.25293V35.5479C39 36.3513 38.8503 36.8792 38.5391 37.2285C38.2305 37.5747 37.674 37.8436 36.6279 37.9189L10.4697 39.4863C9.64925 39.5254 9.11544 39.4813 8.69824 39.3301C8.29864 39.1851 7.95727 38.9235 7.5625 38.4258L2.24414 31.6514C1.3345 30.448 1 29.6243 1 28.6904V4.42578C1.00002 3.79187 1.14638 3.27975 1.43945 2.91602C1.7235 2.56359 2.19786 2.28442 2.99512 2.21289L25.5459 0.592773L25.5527 0.591797ZM35.5283 8.57812L9.81641 10.0654L9.80273 10.0674C9.25634 10.1135 8.77908 10.2848 8.46094 10.6934C8.15814 11.0824 8.07524 11.5931 8.0752 12.1328V35.3086C8.07523 36.0063 8.25002 36.6182 8.75879 37.0127C9.18036 37.3394 9.74475 37.4451 10.3799 37.4385L10.6562 37.4287L35.2607 36.0195C36.0783 35.9739 36.656 35.6957 36.9893 35.166C37.2925 34.6839 37.3262 34.0857 37.3262 33.5811V10.5654C37.3262 10.01 37.2174 9.48069 36.9023 9.0957C36.6057 8.73323 36.1876 8.57006 35.7158 8.56934L35.5283 8.57812ZM28.7588 2.0498C28.1304 1.81743 27.3626 1.68985 26.3916 1.77441L4.73145 3.34277H4.72363L4.7168 3.34375C4.28057 3.38816 3.8511 3.53233 3.62598 3.86816C3.50257 4.05242 3.45934 4.27283 3.50879 4.49023C3.55565 4.69613 3.6763 4.86142 3.81152 4.9834L3.8252 4.99512L3.83984 5.00684L6.91406 7.39453V7.39551C7.58046 7.92565 8.09442 8.21725 8.78809 8.32227C9.4274 8.41896 10.2099 8.35089 11.3643 8.27344L11.3633 8.27246L33.75 6.94531L33.749 6.94238C33.918 6.93805 34.201 6.89515 34.3623 6.63086C34.5285 6.35829 34.4221 6.08529 34.373 5.9834C34.3108 5.85411 34.2208 5.74294 34.1396 5.66309C34.0857 5.61002 33.999 5.53413 33.8916 5.47949L30.2002 2.875C29.8386 2.60187 29.3776 2.27862 28.7588 2.0498ZM28.7109 15.0371L28.2686 14.9854L26.6582 14.7969C26.7445 14.4685 27.0482 14.2186 27.4697 14.1729L32.4102 13.9062C32.4061 14.0119 32.391 14.1031 32.3633 14.1738C32.317 14.2917 32.2488 14.3568 32.0977 14.374L32.0762 14.376L32.0547 14.3809L30.8672 14.6201L30.4658 14.7002V31.9141C29.5796 32.345 28.8125 32.5762 28.1836 32.5762C27.6067 32.5762 27.3208 32.4863 27.0762 32.3184C26.7951 32.1253 26.5301 31.8069 26.0498 31.2129L18.3135 19.25L17.3936 17.8281V31.5127L17.7881 31.5977L19.7207 32.0156C19.7121 32.0295 19.705 32.0447 19.6953 32.0586C19.5572 32.2559 19.2299 32.5497 18.3799 32.5498H18.3506L13.4062 32.8389C13.4629 32.6825 13.5456 32.6163 13.6055 32.5986L13.6045 32.5977L15.0293 32.2021L15.3955 32.1006V15.9512L14.9355 15.9141L13.4023 15.7891C13.423 15.6569 13.4693 15.5212 13.5459 15.3994C13.6836 15.1805 13.9211 14.9987 14.3105 14.9707L14.3096 14.9697L19.8789 14.5918L27.7949 26.4697L28.7109 27.8447V15.0371Z" fill="black" stroke="#535353"/>
</svg>
