<svg width="44" height="22" viewBox="0 0 44 22" fill="none" xmlns="http://www.w3.org/2000/svg">
<path d="M10.5331 7.66675C10.2744 8.2702 9.90088 8.87365 9.3549 9.3909C8.20547 10.5403 6.76868 11.0001 5.27441 11.0576L10.8779 16.6611C10.9641 15.1668 11.3951 13.73 12.5446 12.5806C13.0618 12.0633 13.6653 11.6898 14.2687 11.4024C12.5446 10.7702 11.1653 9.3909 10.5331 7.66675Z" fill="#FF8300"/>
<path d="M9.29701 20.3395C11.4235 18.213 11.4235 14.7647 9.29701 12.6383C7.17056 10.5118 3.72226 10.5118 1.59581 12.6383C-0.530636 14.7647 -0.530636 18.213 1.59581 20.3395C3.72226 22.4659 7.17056 22.4659 9.29701 20.3395Z" fill="#FF8300"/>
<path d="M20.3312 1.63195C22.4576 3.75839 22.4576 7.20669 20.3312 9.33314C18.2047 11.4596 14.7564 11.4596 12.63 9.33314C10.5035 7.20669 10.5035 3.75839 12.63 1.63195C14.7564 -0.494503 18.2047 -0.494503 20.3312 1.63195Z" fill="#55565A"/>
<path d="M42.401 1.63195C40.2745 -0.494503 36.8263 -0.494503 34.6998 1.63195C33.6653 2.66644 33.1481 3.98828 33.1193 5.31013C33.0331 6.80439 32.6021 8.24118 31.4527 9.39061C30.9354 9.90786 30.332 10.3102 29.7285 10.5688C31.4814 11.201 32.8607 12.5803 33.4929 14.3332C33.7515 13.701 34.1251 13.1263 34.6711 12.609C35.8205 11.4596 37.2573 10.9998 38.7516 10.9423C40.1021 10.9136 41.424 10.3676 42.4297 9.36188C44.5274 7.20669 44.5274 3.7584 42.401 1.63195ZM40.5044 7.43658C39.9872 7.95382 39.2688 8.24118 38.5504 8.24118C37.8033 8.24118 37.1136 7.95382 36.5964 7.43658C35.5044 6.34462 35.5044 4.59173 36.5964 3.49977C37.1136 2.98253 37.832 2.69517 38.5504 2.69517C39.2975 2.69517 39.9872 2.98253 40.5044 3.49977C41.0217 4.01702 41.309 4.73541 41.309 5.45381C41.3378 6.22967 41.0504 6.91933 40.5044 7.43658Z" fill="#00A7CE"/>
<path d="M31.3663 12.6671C33.4928 14.7936 33.4928 18.2418 31.3663 20.3683C29.2399 22.4947 25.7916 22.4947 23.6651 20.3683C21.5387 18.2418 21.5387 14.7936 23.6651 12.6671C25.7916 10.5407 29.2399 10.5407 31.3663 12.6671Z" fill="#55565A"/>
<path d="M23.6075 9.39005C22.4581 8.24062 21.9983 6.80383 21.9408 5.30957L16.3086 10.9131C17.8029 10.9993 19.2396 11.4303 20.3891 12.5797C21.5385 13.7292 21.9983 15.1659 22.0558 16.6602L27.6592 11.0567C26.1937 10.9993 24.7569 10.5395 23.6075 9.39005Z" fill="#55565A"/>
</svg>
