<svg width="50" height="44" viewBox="0 0 50 44" fill="none" xmlns="http://www.w3.org/2000/svg">
<g clip-path="url(#clip0_1_336)">
<path d="M25.0736 43.9965L33.8873 16.9297H16.2598L25.0736 43.9965Z" fill="#D74B3A"/>
<path d="M25.0736 43.9965L16.2598 16.9297H3.93359L25.0736 43.9965Z" fill="#F36F3C"/>
<path d="M3.93347 16.9297L1.25007 25.1456C1.01009 25.8866 1.27188 26.7147 1.90456 27.1724L25.0517 43.9748L3.93347 16.9297Z" fill="#F3993F"/>
<path d="M3.93359 16.9308H16.2816L10.9584 0.629632C10.6967 -0.220294 9.49675 -0.220294 9.23496 0.629632L3.93359 16.9308Z" fill="#D74B3A"/>
<path d="M25.0742 43.9965L33.888 16.9297H46.236L25.0742 43.9965Z" fill="#F36F3C"/>
<path d="M46.2119 16.9297L48.8953 25.1456C49.1353 25.8866 48.8735 26.7147 48.2409 27.1724L25.0938 43.9748L46.2119 16.9297Z" fill="#F3993F"/>
<path d="M46.2133 16.93H33.8652L39.1666 0.628912C39.4502 -0.199221 40.6283 -0.199221 40.8901 0.628912L46.2133 16.93Z" fill="#D74B3A"/>
</g>
<defs>
<clipPath id="clip0_1_336">
<rect width="50" height="44" fill="white"/>
</clipPath>
</defs>
</svg>
