<svg width="44" height="44" viewBox="0 0 44 44" fill="none" xmlns="http://www.w3.org/2000/svg">
<path d="M43.8201 24.7935C45.3598 12.7397 36.8473 1.71966 24.8155 0.179933C12.7837 -1.35979 1.71966 7.15268 0.179933 19.1845C-1.35979 31.2163 7.15268 42.2584 19.1845 43.8201C31.2383 45.3598 42.2584 36.8473 43.8201 24.7935Z" fill="#FF6C37"/>
<path d="M29.9399 14.1252L20.6576 23.4075L18.04 20.79C27.1684 11.6616 28.0702 12.4535 29.9399 14.1252Z" fill="white"/>
<path d="M20.6573 23.6266C20.5913 23.6266 20.5474 23.6046 20.5034 23.5606L17.8638 20.9431C17.7759 20.8551 17.7759 20.7231 17.8638 20.6351C27.1462 11.3528 28.114 12.2326 30.0716 13.9923C30.1156 14.0363 30.1376 14.0803 30.1376 14.1463C30.1376 14.2123 30.1156 14.2563 30.0716 14.3003L20.7893 23.5606C20.7673 23.6046 20.7013 23.6266 20.6573 23.6266ZM18.3478 20.7891L20.6573 23.0987L29.6097 14.1463C27.982 12.6946 26.8822 12.2546 18.3478 20.7891Z" fill="#FF6C37"/>
<path d="M23.3196 26.0682L20.79 23.5387L30.0724 14.2563C32.5579 16.7639 28.8406 20.8332 23.3196 26.0682Z" fill="white"/>
<path d="M23.3203 26.2887C23.2543 26.2887 23.2103 26.2667 23.1663 26.2227L20.6368 23.6931C20.5928 23.6491 20.5928 23.6051 20.5928 23.5392C20.5928 23.4732 20.6148 23.4292 20.6588 23.3852L29.9411 14.1029C30.0291 14.0149 30.161 14.0149 30.249 14.1029C30.8209 14.6308 31.1289 15.3786 31.1069 16.1485C31.0629 18.59 28.2914 21.6915 23.4963 26.2227C23.4303 26.2667 23.3643 26.2887 23.3203 26.2887ZM21.0987 23.5392C22.5064 24.9689 23.1003 25.5408 23.3203 25.7608C27.0156 22.2414 30.601 18.634 30.623 16.1485C30.645 15.5766 30.425 15.0047 30.0511 14.5648L21.0987 23.5392Z" fill="#FF6C37"/>
<path d="M18.0845 20.8553L19.9542 22.7249C19.9982 22.7689 19.9982 22.8129 19.9542 22.8569C19.9322 22.8789 19.9322 22.8789 19.9102 22.8789L16.0389 23.7148C15.8409 23.7368 15.6649 23.6048 15.621 23.4068C15.599 23.2968 15.643 23.1869 15.7089 23.1209L17.9525 20.8773C17.9965 20.8333 18.0625 20.8113 18.0845 20.8553Z" fill="white"/>
<path d="M15.9723 23.9353C15.6423 23.9353 15.4004 23.6714 15.4004 23.3414C15.4004 23.1874 15.4664 23.0335 15.5764 22.9235L17.82 20.6799C17.9519 20.5699 18.1279 20.5699 18.2599 20.6799L20.1295 22.5496C20.2615 22.6595 20.2615 22.8575 20.1295 22.9895C20.0855 23.0335 20.0416 23.0555 19.9756 23.0775L16.1043 23.9133C16.0603 23.9133 16.0163 23.9353 15.9723 23.9353ZM18.0179 21.0978L15.8623 23.2534C15.8183 23.2974 15.7963 23.3634 15.8403 23.4294C15.8623 23.4954 15.9283 23.5174 15.9943 23.4954L19.6236 22.7035L18.0179 21.0978Z" fill="#FF6C37"/>
<path d="M34.8459 8.97823C33.4381 7.61448 31.1726 7.65847 29.8088 9.08821C28.445 10.518 28.489 12.7615 29.9188 14.1253C31.0846 15.2471 32.8443 15.4451 34.23 14.6092L31.7225 12.1017L34.8459 8.97823Z" fill="white"/>
<path d="M32.3829 15.3342C30.2933 15.3342 28.5996 13.6405 28.5996 11.5509C28.5996 9.46127 30.2933 7.76758 32.3829 7.76758C33.3508 7.76758 34.2966 8.14151 35.0005 8.82339C35.0445 8.86738 35.0664 8.91137 35.0664 8.97736C35.0664 9.04335 35.0445 9.08734 35.0005 9.13133L32.031 12.1008L34.3626 14.4324C34.4506 14.5204 34.4506 14.6523 34.3626 14.7403C34.3406 14.7623 34.3406 14.7623 34.3186 14.7843C33.7467 15.1363 33.0648 15.3342 32.3829 15.3342ZM32.3829 8.22949C30.5353 8.22949 29.0395 9.72522 29.0615 11.5729C29.0615 13.4206 30.5573 14.9163 32.4049 14.8943C32.9108 14.8943 33.4167 14.7843 33.8787 14.5424L31.5691 12.2548C31.5251 12.2108 31.5031 12.1668 31.5031 12.1008C31.5031 12.0348 31.5251 11.9908 31.5691 11.9468L34.5165 8.99936C33.9227 8.49345 33.1748 8.22949 32.3829 8.22949Z" fill="#FF6C37"/>
<path d="M34.9111 9.0435L34.8671 8.99951L31.7217 12.101L34.2072 14.5865C34.4492 14.4325 34.6911 14.2566 34.8891 14.0586C36.2969 12.6729 36.2969 10.4293 34.9111 9.0435Z" fill="white"/>
<path d="M34.2304 14.8292C34.1645 14.8292 34.1205 14.8072 34.0765 14.7632L31.5689 12.2557C31.5249 12.2117 31.5029 12.1677 31.5029 12.1017C31.5029 12.0357 31.5249 11.9917 31.5689 11.9477L34.6924 8.82429C34.7803 8.7363 34.9123 8.7363 35.0003 8.82429L35.0663 8.86828C36.54 10.342 36.54 12.7176 35.0883 14.2133C34.8683 14.4333 34.6264 14.6312 34.3624 14.7852C34.2964 14.8072 34.2524 14.8292 34.2304 14.8292ZM32.0308 12.1017L34.2524 14.3233C34.4284 14.2133 34.6044 14.0593 34.7363 13.9274C35.9901 12.6736 36.0561 10.628 34.8463 9.3082L32.0308 12.1017Z" fill="#FF6C37"/>
<path d="M30.3146 14.5209C29.7867 13.993 28.9288 13.993 28.4009 14.5209L20.1084 22.8134L21.4941 24.1992L30.2706 16.5006C30.8425 16.0167 30.8865 15.1588 30.4025 14.5869C30.3586 14.5649 30.3366 14.5429 30.3146 14.5209Z" fill="white"/>
<path d="M21.4719 24.4186C21.4059 24.4186 21.3619 24.3967 21.3179 24.3527L19.9322 22.9669C19.8442 22.8789 19.8442 22.7469 19.9322 22.659L28.2247 14.3665C28.8406 13.7506 29.8304 13.7506 30.4463 14.3665C31.0622 14.9823 31.0622 15.9722 30.4463 16.5881C30.4243 16.6101 30.4023 16.632 30.3803 16.654L21.6039 24.3527C21.5819 24.3967 21.5379 24.4186 21.4719 24.4186ZM20.4161 22.8129L21.4939 23.8907L30.1164 16.3241C30.6003 15.9282 30.6443 15.2023 30.2483 14.7184C29.8524 14.2345 29.1265 14.1905 28.6426 14.5864C28.6206 14.6084 28.5986 14.6304 28.5546 14.6524L20.4161 22.8129Z" fill="#FF6C37"/>
<path d="M13.7516 32.2498C13.6637 32.2938 13.6197 32.3818 13.6417 32.4698L14.0156 34.0535C14.1036 34.2734 13.9716 34.5374 13.7297 34.6034C13.5537 34.6694 13.3557 34.6034 13.2457 34.4714L10.8262 32.0738L18.7228 24.1772L21.4503 24.2212L23.2979 26.0689C22.858 26.4428 20.1965 29.0164 13.7516 32.2498Z" fill="white"/>
<path d="M13.5759 34.8228C13.3999 34.8228 13.2239 34.7568 13.1139 34.6249L10.7164 32.2273C10.6724 32.1833 10.6504 32.1393 10.6504 32.0733C10.6504 32.0073 10.6724 31.9633 10.7164 31.9194L18.613 24.0228C18.6569 23.9788 18.7229 23.9568 18.7669 23.9568L21.4944 24.0008C21.5604 24.0008 21.6044 24.0228 21.6484 24.0668L23.4961 25.9144C23.5401 25.9584 23.5621 26.0244 23.5621 26.0904C23.5621 26.1564 23.5401 26.2004 23.4741 26.2444L23.3201 26.3764C20.9885 28.422 17.8211 30.4676 13.8838 32.4253L14.2577 33.987C14.3237 34.2729 14.1918 34.5809 13.9278 34.7348C13.7958 34.8008 13.6858 34.8228 13.5759 34.8228ZM11.1563 32.0733L13.4219 34.3169C13.4879 34.4269 13.6199 34.4709 13.7298 34.4049C13.8398 34.3389 13.8838 34.2069 13.8178 34.097L13.4439 32.5132C13.3999 32.3153 13.4879 32.1393 13.6638 32.0513C17.5571 30.0937 20.7026 28.07 23.0122 26.0684L21.3845 24.4407L18.8549 24.3967L11.1563 32.0733Z" fill="#FF6C37"/>
<path d="M8.95658 33.9647L10.8482 32.073L13.6637 34.8885L9.17654 34.5805C8.97858 34.5585 8.8466 34.3826 8.8686 34.1846C8.8686 34.0966 8.8906 34.0086 8.95658 33.9647Z" fill="white"/>
<path d="M13.6646 35.0872L9.15539 34.7793C8.82545 34.7573 8.60549 34.4713 8.62749 34.1414C8.64948 34.0094 8.69348 33.8774 8.80346 33.7894L10.6951 31.8978C10.7831 31.8098 10.9151 31.8098 11.0031 31.8978L13.8186 34.7133C13.8845 34.7793 13.9065 34.8672 13.8625 34.9552C13.8186 35.0432 13.7526 35.0872 13.6646 35.0872ZM10.8491 32.3817L9.1114 34.1194C9.04541 34.1634 9.04541 34.2733 9.1114 34.3173C9.1334 34.3393 9.1554 34.3613 9.19939 34.3613L13.0927 34.6253L10.8491 32.3817Z" fill="#FF6C37"/>
<path d="M17.9534 25.1885C17.8214 25.1885 17.7334 25.0785 17.7334 24.9686C17.7334 24.9026 17.7554 24.8586 17.7994 24.8146L19.933 22.681C20.021 22.593 20.153 22.593 20.2409 22.681L21.6267 24.0667C21.6927 24.1327 21.7147 24.1987 21.6927 24.2867C21.6707 24.3527 21.6047 24.4187 21.5167 24.4407L17.9974 25.1885C17.9754 25.1885 17.9534 25.1885 17.9534 25.1885ZM20.087 23.1429L18.6352 24.5946L21.0108 24.0887L20.087 23.1429Z" fill="#FF6C37"/>
<path d="M21.4494 24.2209L19.0298 24.7488C18.8539 24.7928 18.6779 24.6828 18.6339 24.5069C18.6119 24.3969 18.6339 24.2869 18.7219 24.1989L20.0637 22.8572L21.4494 24.2209Z" fill="white"/>
<path d="M18.9854 24.9686C18.6775 24.9686 18.4355 24.7266 18.4355 24.4187C18.4355 24.2647 18.5015 24.1327 18.5895 24.0227L19.9313 22.681C20.0193 22.593 20.1512 22.593 20.2392 22.681L21.625 24.0667C21.691 24.1327 21.713 24.1987 21.691 24.2867C21.669 24.3527 21.603 24.4187 21.515 24.4407L19.0954 24.9686C19.0514 24.9686 19.0074 24.9686 18.9854 24.9686ZM20.0852 23.1429L18.8975 24.3307C18.8535 24.3747 18.8535 24.4187 18.8755 24.4627C18.8975 24.5066 18.9415 24.5286 19.0074 24.5286L21.0311 24.0887L20.0852 23.1429Z" fill="#FF6C37"/>
<path d="M34.9331 11.1556C34.8891 11.0236 34.7351 10.9576 34.6031 11.0016C34.4711 11.0456 34.4052 11.1996 34.4491 11.3316C34.4491 11.3535 34.4711 11.3755 34.4711 11.3975C34.6031 11.6615 34.5591 11.9914 34.3832 12.2334C34.2952 12.3434 34.3172 12.4973 34.4052 12.5853C34.5151 12.6733 34.6691 12.6513 34.7571 12.5413C35.087 12.1234 35.153 11.5955 34.9331 11.1556Z" fill="#FF6C37"/>
</svg>
